<svg xmlns="http://www.w3.org/2000/svg" version="1.1" viewBox="0 0 1050 1600"><defs><filter id="filter3874" color-interpolation-filters="sRGB"><feGaussianBlur in="SourceGraphic" stdDeviation="0.01 5"/></filter><filter id="filter4056" color-interpolation-filters="sRGB"><feGaussianBlur in="SourceGraphic" result="result6" stdDeviation="3"/><feColorMatrix in="SourceGraphic" result="result7" values="1 0 0 0 0 0 1 0 0 0 0 0 1 0 0 0 0 0 1 0"/><feComposite in="result6" in2="result7" operator="in" result="fbSourceGraphic"/><feColorMatrix in="fbSourceGraphic" result="fbSourceGraphicAlpha" values="0 0 0 -1 0 0 0 0 -1 0 0 0 0 -1 0 0 0 0 1 0"/><feGaussianBlur in="fbSourceGraphic" result="result6" stdDeviation="3"/><feColorMatrix in="fbSourceGraphic" result="result7" values="1 0 0 0 0 0 1 0 0 0 0 0 1 0 0 0 0 0 1 0"/><feComposite in="result6" in2="result7" operator="in"/></filter><filter id="filter4098" color-interpolation-filters="sRGB"><feGaussianBlur in="SourceGraphic" result="result6" stdDeviation="3"/><feColorMatrix in="SourceGraphic" result="result7" values="1 0 0 0 0 0 1 0 0 0 0 0 1 0 0 0 0 0 1 0"/><feComposite in="result6" in2="result7" operator="in" result="fbSourceGraphic"/><feColorMatrix in="fbSourceGraphic" result="fbSourceGraphicAlpha" values="0 0 0 -1 0 0 0 0 -1 0 0 0 0 -1 0 0 0 0 1 0"/><feGaussianBlur in="fbSourceGraphic" result="result6" stdDeviation="3"/><feColorMatrix in="fbSourceGraphic" result="result7" values="1 0 0 0 0 0 1 0 0 0 0 0 1 0 0 0 0 0 1 0"/><feComposite in="result6" in2="result7" operator="in"/></filter></defs><metadata/><rect style="enable-background:accumulate;fill-rule:nonzero;color:#000;fill:#333332" width="1050" height="1600" x="0" y="0"/><rect style="enable-background:accumulate;fill-rule:nonzero;color:#000;fill:#264e2e" width="1050" height="20" x="0" y="468"/><path style="filter:url(#filter4056);fill:#264e2e" d="m525,349.3-495,25c127.6,50,67.95,230,40,240l455-10,455,10c-27.95-10-87.65-190,40-240l-495-25z"/><path style="filter:url(#filter4098);fill:#57ad68" d="m525,379.3-460,5c93.17,34.67,55,190,40,205h420,420c-15-15-53.17-170.3,40-205l-460-5z"/><path style="fill:#333332" d="m95,394.3c55.42,25.11,45.36,131.3,35,165l395,15,395-15c-10.36-33.66-20.42-139.9,35-165l-430,5-430-5z"/><rect style="enable-background:accumulate;fill-rule:nonzero;color:#000;filter:url(#filter3874);fill:#264e2e" width="1050" height="169.5" x="0" y="1435"/><rect style="enable-background:accumulate;fill-rule:nonzero;color:#000;fill:#57ad68" width="1050" height="6" x="0" y="1453"/><g><text style="font-size:86px;stroke-width:3;writing-mode:lr-tb;fill:#b3b3b1;letter-spacing:-4px;text-anchor:start;line-height:100%;word-spacing:0;stroke:#b3b3b1;font-stretch:normal;stroke-miterlimit:4;font-family:'M+ 1p';font-variant:normal;stroke-dasharray:none;font-weight:700;font-style:normal;text-align:start" x="162.991" y="529.82" transform="translate(1.2573242e-5,-10)" xml:space="preserve"><tspan x="162.991" y="529.82">Asciidoctor</tspan></text><text style="font-size:86px;stroke-width:3;writing-mode:lr-tb;fill:#b3b3b1;letter-spacing:-4px;text-anchor:start;line-height:100%;word-spacing:0;stroke:#b3b3b1;font-stretch:normal;stroke-miterlimit:4;font-family:'M+ 1p';font-variant:normal;stroke-dasharray:none;font-weight:700;font-style:normal;text-align:start" x="632.991" y="529.82" transform="translate(1.2573242e-5,-10)" xml:space="preserve"><tspan x="632.991" y="529.82">EPUB3</tspan></text></g><g><text style="font-size:86px;font-family:'M+ 1p';writing-mode:lr-tb;fill:#fff;letter-spacing:-4px;text-anchor:start;line-height:100%;word-spacing:0;font-stretch:normal;font-variant:normal;font-weight:700;font-style:normal;text-align:start" x="162.991" y="529.82" transform="translate(1.2573242e-5,-10)" xml:space="preserve"><tspan x="162.991" y="529.82">Asciidoctor</tspan></text><text style="font-size:86px;font-family:'M+ 1p';writing-mode:lr-tb;fill:#fff;letter-spacing:-4px;text-anchor:start;line-height:100%;word-spacing:0;font-stretch:normal;font-variant:normal;font-weight:700;font-style:normal;text-align:start" x="632.991" y="529.82" transform="translate(1.2573242e-5,-10)" xml:space="preserve"><tspan x="632.991" y="529.82">EPUB3</tspan></text></g><g><path style="stroke-linejoin:miter;stroke:#122616;stroke-linecap:square;stroke-miterlimit:4;stroke-dasharray:none;stroke-width:32;fill:none" d="m11.87,3098,1021,0" transform="translate(0,547.6378)"/></g></svg>